<?xml version="1.0" ?><svg viewBox="0 0 32 32" xmlns="http://www.w3.org/2000/svg"><g data-name="2. Coin" id="_2._Coin"><path d="M22,9h-.19A2.83,2.83,0,0,0,22,8V6a3,3,0,0,0-3-3H3A3,3,0,0,0,0,6V8a3,3,0,0,0,2.22,2.88A3,3,0,0,0,2,12v2a3,3,0,0,0,.22,1.12A3,3,0,0,0,0,18v2a3,3,0,0,0,2.22,2.88A3,3,0,0,0,2,24v2a3,3,0,0,0,3,3H22A10,10,0,0,0,22,9Zm-9.16,6H5a1,1,0,0,1-1-1V12a1,1,0,0,1,1-1H16A10,10,0,0,0,12.84,15ZM2,6A1,1,0,0,1,3,5H19a1,1,0,0,1,1,1V8a1,1,0,0,1-1,1H3A1,1,0,0,1,2,8ZM2,18a1,1,0,0,1,1-1h9.2a10.1,10.1,0,0,0,0,4H3a1,1,0,0,1-1-1Zm3,9a1,1,0,0,1-1-1V24a1,1,0,0,1,1-1h7.84A10,10,0,0,0,16,27Zm17,0a8,8,0,1,1,8-8A8,8,0,0,1,22,27Z"/><path d="M22,16h2a1,1,0,0,0,0-2H23a1,1,0,0,0-2,0v.18A3,3,0,0,0,22,20a1,1,0,0,1,0,2H20a1,1,0,0,0,0,2h1a1,1,0,0,0,2,0v-.18A3,3,0,0,0,22,18a1,1,0,0,1,0-2Z"/></g></svg>